<mxfile host="app.diagrams.net" modified="2021-05-13T06:26:23.686Z" agent="5.0 (Windows NT 6.1; Win64; x64) AppleWebKit/537.36 (KHTML, like Gecko) Chrome/90.0.4430.93 Safari/537.36" etag="S169zW88kY99ewZ4hm5W" version="14.6.12" type="github">
  <diagram name="Page-1" id="e7e014a7-5840-1c2e-5031-d8a46d1fe8dd">
    <mxGraphModel dx="1019" dy="616" grid="1" gridSize="10" guides="1" tooltips="1" connect="1" arrows="1" fold="1" page="1" pageScale="1" pageWidth="1169" pageHeight="826" background="#ffffff" math="0" shadow="0">
      <root>
        <mxCell id="0" />
        <mxCell id="1" parent="0" />
        <mxCell id="dg4Ksw1on97DuJ25nvBi-41" value="&lt;b&gt;&lt;font style=&quot;font-size: 16px&quot;&gt;Iterable&lt;/font&gt;&lt;/b&gt;" style="shape=partialRectangle;html=1;top=1;align=center;dashed=1;" vertex="1" parent="1">
          <mxGeometry x="20" y="160" width="70" height="30" as="geometry" />
        </mxCell>
        <mxCell id="dg4Ksw1on97DuJ25nvBi-42" value="&lt;b&gt;&lt;font style=&quot;font-size: 16px&quot;&gt;Collection&lt;/font&gt;&lt;/b&gt;" style="shape=partialRectangle;html=1;top=1;align=center;dashed=1;" vertex="1" parent="1">
          <mxGeometry x="320" y="160" width="80" height="30" as="geometry" />
        </mxCell>
        <mxCell id="dg4Ksw1on97DuJ25nvBi-43" value="&lt;b&gt;&lt;font style=&quot;font-size: 16px&quot;&gt;Map&lt;/font&gt;&lt;/b&gt;" style="shape=partialRectangle;html=1;top=1;align=center;dashed=1;" vertex="1" parent="1">
          <mxGeometry x="770" y="160" width="60" height="30" as="geometry" />
        </mxCell>
        <mxCell id="dg4Ksw1on97DuJ25nvBi-56" value="" style="html=1;verticalAlign=bottom;labelBackgroundColor=none;endArrow=block;endFill=1;dashed=1;exitX=0;exitY=0.5;exitDx=0;exitDy=0;entryX=1;entryY=0.5;entryDx=0;entryDy=0;" edge="1" parent="1" source="dg4Ksw1on97DuJ25nvBi-42" target="dg4Ksw1on97DuJ25nvBi-41">
          <mxGeometry width="160" relative="1" as="geometry">
            <mxPoint x="280" y="280" as="sourcePoint" />
            <mxPoint x="220" y="170" as="targetPoint" />
          </mxGeometry>
        </mxCell>
        <mxCell id="dg4Ksw1on97DuJ25nvBi-59" value="Produces" style="edgeLabel;html=1;align=center;verticalAlign=middle;resizable=0;points=[];" vertex="1" connectable="0" parent="dg4Ksw1on97DuJ25nvBi-56">
          <mxGeometry y="-1" relative="1" as="geometry">
            <mxPoint as="offset" />
          </mxGeometry>
        </mxCell>
        <mxCell id="dg4Ksw1on97DuJ25nvBi-60" value="Produces" style="edgeLabel;html=1;align=center;verticalAlign=middle;resizable=0;points=[];" vertex="1" connectable="0" parent="dg4Ksw1on97DuJ25nvBi-56">
          <mxGeometry y="-1" relative="1" as="geometry">
            <mxPoint y="1" as="offset" />
          </mxGeometry>
        </mxCell>
        <mxCell id="dg4Ksw1on97DuJ25nvBi-64" value="" style="html=1;verticalAlign=bottom;labelBackgroundColor=none;endArrow=block;endFill=1;dashed=1;exitX=0;exitY=0.5;exitDx=0;exitDy=0;entryX=1;entryY=0.5;entryDx=0;entryDy=0;" edge="1" parent="1" source="dg4Ksw1on97DuJ25nvBi-43" target="dg4Ksw1on97DuJ25nvBi-42">
          <mxGeometry width="160" relative="1" as="geometry">
            <mxPoint x="510" y="174.5" as="sourcePoint" />
            <mxPoint x="410" y="174.5" as="targetPoint" />
          </mxGeometry>
        </mxCell>
        <mxCell id="dg4Ksw1on97DuJ25nvBi-65" value="Produces" style="edgeLabel;html=1;align=center;verticalAlign=middle;resizable=0;points=[];" vertex="1" connectable="0" parent="dg4Ksw1on97DuJ25nvBi-64">
          <mxGeometry y="-1" relative="1" as="geometry">
            <mxPoint as="offset" />
          </mxGeometry>
        </mxCell>
        <mxCell id="dg4Ksw1on97DuJ25nvBi-66" value="Produces" style="edgeLabel;html=1;align=center;verticalAlign=middle;resizable=0;points=[];" vertex="1" connectable="0" parent="dg4Ksw1on97DuJ25nvBi-64">
          <mxGeometry y="-1" relative="1" as="geometry">
            <mxPoint y="1" as="offset" />
          </mxGeometry>
        </mxCell>
        <mxCell id="dg4Ksw1on97DuJ25nvBi-67" value="&lt;b&gt;&lt;font style=&quot;font-size: 16px&quot;&gt;ListIterator&lt;/font&gt;&lt;/b&gt;" style="shape=partialRectangle;html=1;top=1;align=center;dashed=1;" vertex="1" parent="1">
          <mxGeometry x="5" y="230" width="90" height="30" as="geometry" />
        </mxCell>
        <mxCell id="dg4Ksw1on97DuJ25nvBi-68" value="&lt;b&gt;&lt;font style=&quot;font-size: 16px&quot;&gt;List&lt;/font&gt;&lt;/b&gt;" style="shape=partialRectangle;html=1;top=1;align=center;dashed=1;" vertex="1" parent="1">
          <mxGeometry x="210" y="230" width="60" height="30" as="geometry" />
        </mxCell>
        <mxCell id="dg4Ksw1on97DuJ25nvBi-70" value="&lt;b&gt;&lt;font style=&quot;font-size: 16px&quot;&gt;Set&lt;/font&gt;&lt;/b&gt;" style="shape=partialRectangle;html=1;top=1;align=center;dashed=1;" vertex="1" parent="1">
          <mxGeometry x="330" y="230" width="60" height="30" as="geometry" />
        </mxCell>
        <mxCell id="dg4Ksw1on97DuJ25nvBi-74" value="&lt;b&gt;&lt;font style=&quot;font-size: 16px&quot;&gt;Queue&lt;/font&gt;&lt;/b&gt;" style="shape=partialRectangle;html=1;top=1;align=center;dashed=1;" vertex="1" parent="1">
          <mxGeometry x="465" y="230" width="60" height="30" as="geometry" />
        </mxCell>
        <mxCell id="dg4Ksw1on97DuJ25nvBi-79" value="" style="html=1;verticalAlign=bottom;labelBackgroundColor=none;endArrow=block;endFill=1;dashed=1;entryX=1;entryY=0.5;entryDx=0;entryDy=0;exitX=0;exitY=0.5;exitDx=0;exitDy=0;" edge="1" parent="1" source="dg4Ksw1on97DuJ25nvBi-68" target="dg4Ksw1on97DuJ25nvBi-67">
          <mxGeometry width="160" relative="1" as="geometry">
            <mxPoint x="290" y="245" as="sourcePoint" />
            <mxPoint x="170" y="244.5" as="targetPoint" />
          </mxGeometry>
        </mxCell>
        <mxCell id="dg4Ksw1on97DuJ25nvBi-80" value="Produces" style="edgeLabel;html=1;align=center;verticalAlign=middle;resizable=0;points=[];" vertex="1" connectable="0" parent="dg4Ksw1on97DuJ25nvBi-79">
          <mxGeometry y="-1" relative="1" as="geometry">
            <mxPoint as="offset" />
          </mxGeometry>
        </mxCell>
        <mxCell id="dg4Ksw1on97DuJ25nvBi-81" value="Produces" style="edgeLabel;html=1;align=center;verticalAlign=middle;resizable=0;points=[];" vertex="1" connectable="0" parent="dg4Ksw1on97DuJ25nvBi-79">
          <mxGeometry y="-1" relative="1" as="geometry">
            <mxPoint y="1" as="offset" />
          </mxGeometry>
        </mxCell>
        <mxCell id="dg4Ksw1on97DuJ25nvBi-82" value="" style="html=1;verticalAlign=bottom;labelBackgroundColor=none;endArrow=block;endFill=1;dashed=1;entryX=0.5;entryY=1;entryDx=0;entryDy=0;exitX=0.5;exitY=0;exitDx=0;exitDy=0;edgeStyle=orthogonalEdgeStyle;" edge="1" parent="1" source="dg4Ksw1on97DuJ25nvBi-68" target="dg4Ksw1on97DuJ25nvBi-42">
          <mxGeometry width="160" relative="1" as="geometry">
            <mxPoint x="360" y="360" as="sourcePoint" />
            <mxPoint x="350" y="190" as="targetPoint" />
          </mxGeometry>
        </mxCell>
        <mxCell id="dg4Ksw1on97DuJ25nvBi-88" value="" style="endArrow=none;dashed=1;html=1;exitX=0.5;exitY=0;exitDx=0;exitDy=0;edgeStyle=orthogonalEdgeStyle;" edge="1" parent="1" source="dg4Ksw1on97DuJ25nvBi-74">
          <mxGeometry width="50" height="50" relative="1" as="geometry">
            <mxPoint x="570" y="230" as="sourcePoint" />
            <mxPoint x="360" y="210" as="targetPoint" />
            <Array as="points">
              <mxPoint x="500" y="230" />
              <mxPoint x="500" y="210" />
            </Array>
          </mxGeometry>
        </mxCell>
        <mxCell id="dg4Ksw1on97DuJ25nvBi-91" value="" style="endArrow=block;startArrow=none;endFill=0;startFill=0;endSize=8;html=1;verticalAlign=bottom;dashed=1;labelBackgroundColor=none;entryX=0.5;entryY=1;entryDx=0;entryDy=0;exitX=0.5;exitY=0;exitDx=0;exitDy=0;" edge="1" parent="1" source="dg4Ksw1on97DuJ25nvBi-67" target="dg4Ksw1on97DuJ25nvBi-41">
          <mxGeometry width="160" relative="1" as="geometry">
            <mxPoint x="50" y="230" as="sourcePoint" />
            <mxPoint x="560" y="360" as="targetPoint" />
          </mxGeometry>
        </mxCell>
        <mxCell id="dg4Ksw1on97DuJ25nvBi-93" value="" style="endArrow=block;startArrow=none;endFill=0;startFill=0;endSize=8;html=1;verticalAlign=bottom;dashed=1;labelBackgroundColor=none;exitX=0.5;exitY=0;exitDx=0;exitDy=0;edgeStyle=orthogonalEdgeStyle;entryX=0.5;entryY=1;entryDx=0;entryDy=0;" edge="1" parent="1" source="dg4Ksw1on97DuJ25nvBi-122" target="dg4Ksw1on97DuJ25nvBi-68">
          <mxGeometry width="160" relative="1" as="geometry">
            <mxPoint x="125" y="370" as="sourcePoint" />
            <mxPoint x="240" y="265" as="targetPoint" />
          </mxGeometry>
        </mxCell>
        <mxCell id="dg4Ksw1on97DuJ25nvBi-95" value="" style="endArrow=block;startArrow=none;endFill=0;startFill=0;endSize=8;html=1;verticalAlign=bottom;dashed=1;labelBackgroundColor=none;entryX=0.5;entryY=1;entryDx=0;entryDy=0;exitX=0.5;exitY=0;exitDx=0;exitDy=0;" edge="1" parent="1" source="dg4Ksw1on97DuJ25nvBi-125" target="dg4Ksw1on97DuJ25nvBi-70">
          <mxGeometry width="160" relative="1" as="geometry">
            <mxPoint x="312.5" y="380" as="sourcePoint" />
            <mxPoint x="420.0000000000001" y="260" as="targetPoint" />
          </mxGeometry>
        </mxCell>
        <mxCell id="dg4Ksw1on97DuJ25nvBi-96" value="" style="endArrow=block;startArrow=none;endFill=0;startFill=0;endSize=8;html=1;verticalAlign=bottom;dashed=1;labelBackgroundColor=none;entryX=0.5;entryY=1;entryDx=0;entryDy=0;exitX=0.5;exitY=0;exitDx=0;exitDy=0;" edge="1" parent="1" source="dg4Ksw1on97DuJ25nvBi-104" target="dg4Ksw1on97DuJ25nvBi-74">
          <mxGeometry width="160" relative="1" as="geometry">
            <mxPoint x="569.41" y="296" as="sourcePoint" />
            <mxPoint x="569.41" y="260" as="targetPoint" />
          </mxGeometry>
        </mxCell>
        <mxCell id="dg4Ksw1on97DuJ25nvBi-97" value="" style="endArrow=block;startArrow=none;endFill=0;startFill=0;endSize=8;html=1;verticalAlign=bottom;dashed=1;labelBackgroundColor=none;entryX=0.5;entryY=1;entryDx=0;entryDy=0;" edge="1" parent="1">
          <mxGeometry width="160" relative="1" as="geometry">
            <mxPoint x="879.4099999999999" y="296" as="sourcePoint" />
            <mxPoint x="879.4099999999999" y="260" as="targetPoint" />
          </mxGeometry>
        </mxCell>
        <mxCell id="dg4Ksw1on97DuJ25nvBi-102" value="" style="endArrow=block;startArrow=none;endFill=0;startFill=0;endSize=8;html=1;verticalAlign=bottom;dashed=1;labelBackgroundColor=none;entryX=0.5;entryY=1;entryDx=0;entryDy=0;exitX=0.5;exitY=0;exitDx=0;exitDy=0;" edge="1" parent="1" target="dg4Ksw1on97DuJ25nvBi-70">
          <mxGeometry width="160" relative="1" as="geometry">
            <mxPoint x="442.5" y="380" as="sourcePoint" />
            <mxPoint x="430" y="270" as="targetPoint" />
          </mxGeometry>
        </mxCell>
        <mxCell id="dg4Ksw1on97DuJ25nvBi-104" value="&lt;span style=&quot;font-size: 16px&quot;&gt;&lt;b&gt;AbstractQueue&lt;/b&gt;&lt;/span&gt;" style="shape=partialRectangle;html=1;top=1;align=center;dashed=1;" vertex="1" parent="1">
          <mxGeometry x="560" y="380" width="120" height="30" as="geometry" />
        </mxCell>
        <mxCell id="dg4Ksw1on97DuJ25nvBi-105" value="" style="endArrow=block;startArrow=none;endFill=0;startFill=0;endSize=8;html=1;verticalAlign=bottom;dashed=1;labelBackgroundColor=none;entryX=0.5;entryY=1;entryDx=0;entryDy=0;exitX=0.5;exitY=0;exitDx=0;exitDy=0;edgeStyle=orthogonalEdgeStyle;" edge="1" parent="1" source="dg4Ksw1on97DuJ25nvBi-104">
          <mxGeometry width="160" relative="1" as="geometry">
            <mxPoint x="540" y="440" as="sourcePoint" />
            <mxPoint x="489.40999999999985" y="320" as="targetPoint" />
          </mxGeometry>
        </mxCell>
        <mxCell id="dg4Ksw1on97DuJ25nvBi-110" value="AbstractMap" style="rounded=1;whiteSpace=wrap;html=1;align=center;fontStyle=1;fontSize=16;" vertex="1" parent="1">
          <mxGeometry x="680" y="230" width="120" height="30" as="geometry" />
        </mxCell>
        <mxCell id="dg4Ksw1on97DuJ25nvBi-112" value="&lt;b style=&quot;font-size: 12px&quot;&gt;&lt;font style=&quot;font-size: 16px&quot;&gt;SorteMap&lt;/font&gt;&lt;/b&gt;" style="rounded=1;whiteSpace=wrap;html=1;align=center;fontStyle=1;fontSize=16;" vertex="1" parent="1">
          <mxGeometry x="820" y="230" width="120" height="30" as="geometry" />
        </mxCell>
        <mxCell id="dg4Ksw1on97DuJ25nvBi-117" value="" style="endArrow=block;startArrow=none;endFill=0;startFill=0;endSize=8;html=1;verticalAlign=bottom;dashed=1;labelBackgroundColor=none;exitX=0.5;exitY=0;exitDx=0;exitDy=0;entryX=0.5;entryY=1;entryDx=0;entryDy=0;edgeStyle=orthogonalEdgeStyle;" edge="1" parent="1" source="dg4Ksw1on97DuJ25nvBi-112" target="dg4Ksw1on97DuJ25nvBi-43">
          <mxGeometry width="160" relative="1" as="geometry">
            <mxPoint x="820" y="240" as="sourcePoint" />
            <mxPoint x="810" y="190" as="targetPoint" />
          </mxGeometry>
        </mxCell>
        <mxCell id="dg4Ksw1on97DuJ25nvBi-118" value="" style="endArrow=none;dashed=1;html=1;fontSize=16;exitX=0.5;exitY=0;exitDx=0;exitDy=0;edgeStyle=orthogonalEdgeStyle;" edge="1" parent="1" source="dg4Ksw1on97DuJ25nvBi-110">
          <mxGeometry width="50" height="50" relative="1" as="geometry">
            <mxPoint x="510" y="310" as="sourcePoint" />
            <mxPoint x="800" y="210" as="targetPoint" />
            <Array as="points">
              <mxPoint x="740" y="210" />
            </Array>
          </mxGeometry>
        </mxCell>
        <mxCell id="dg4Ksw1on97DuJ25nvBi-119" value="&lt;b&gt;AbstractCollectiion&lt;/b&gt;" style="rounded=1;whiteSpace=wrap;html=1;align=center;fontStyle=1;fontSize=16;" vertex="1" parent="1">
          <mxGeometry x="420" y="290" width="150" height="30" as="geometry" />
        </mxCell>
        <mxCell id="dg4Ksw1on97DuJ25nvBi-120" value="" style="endArrow=none;dashed=1;html=1;fontSize=16;edgeStyle=orthogonalEdgeStyle;" edge="1" parent="1">
          <mxGeometry width="50" height="50" relative="1" as="geometry">
            <mxPoint x="100" y="350" as="sourcePoint" />
            <mxPoint x="490" y="330" as="targetPoint" />
          </mxGeometry>
        </mxCell>
        <mxCell id="dg4Ksw1on97DuJ25nvBi-122" value="AbstractList" style="rounded=1;whiteSpace=wrap;html=1;align=center;fontStyle=1;fontSize=16;" vertex="1" parent="1">
          <mxGeometry x="40" y="380" width="120" height="30" as="geometry" />
        </mxCell>
        <mxCell id="dg4Ksw1on97DuJ25nvBi-124" value="" style="endArrow=none;dashed=1;html=1;fontSize=16;exitX=0.5;exitY=0;exitDx=0;exitDy=0;" edge="1" parent="1" source="dg4Ksw1on97DuJ25nvBi-70">
          <mxGeometry width="50" height="50" relative="1" as="geometry">
            <mxPoint x="360" y="220" as="sourcePoint" />
            <mxPoint x="360" y="210" as="targetPoint" />
          </mxGeometry>
        </mxCell>
        <mxCell id="dg4Ksw1on97DuJ25nvBi-125" value="&lt;b&gt;AbstractSet&lt;/b&gt;" style="rounded=1;whiteSpace=wrap;html=1;align=center;fontStyle=1;fontSize=16;" vertex="1" parent="1">
          <mxGeometry x="230" y="380" width="120" height="30" as="geometry" />
        </mxCell>
        <mxCell id="dg4Ksw1on97DuJ25nvBi-126" value="&lt;b&gt;SortedSet&lt;/b&gt;" style="rounded=1;whiteSpace=wrap;html=1;align=center;fontStyle=1;fontSize=16;" vertex="1" parent="1">
          <mxGeometry x="390" y="380" width="120" height="30" as="geometry" />
        </mxCell>
        <mxCell id="dg4Ksw1on97DuJ25nvBi-127" value="" style="endArrow=none;dashed=1;html=1;fontSize=16;entryX=0.5;entryY=0;entryDx=0;entryDy=0;" edge="1" parent="1" target="dg4Ksw1on97DuJ25nvBi-125">
          <mxGeometry width="50" height="50" relative="1" as="geometry">
            <mxPoint x="290" y="350" as="sourcePoint" />
            <mxPoint x="390" y="270" as="targetPoint" />
          </mxGeometry>
        </mxCell>
      </root>
    </mxGraphModel>
  </diagram>
</mxfile>
